<svg width="231" height="231" viewBox="0 0 231 231" fill="none" xmlns="http://www.w3.org/2000/svg">
<g clip-path="url(#clip0_177_4287)">
<path d="M52.938 163.626C60.9116 163.626 67.3755 157.163 67.3755 149.189C67.3755 141.215 60.9116 134.751 52.938 134.751C44.9644 134.751 38.5005 141.215 38.5005 149.189C38.5005 157.163 44.9644 163.626 52.938 163.626Z" fill="#F2F2F2"/>
<path d="M182.875 28.8749H48.125C35.3661 28.8902 23.1342 33.9654 14.1124 42.9873C5.09049 52.0092 0.0152831 64.2411 0 76.9999L0 154C0.0152831 166.759 5.09049 178.991 14.1124 188.013C23.1342 197.034 35.3661 202.11 48.125 202.125H182.875C195.634 202.11 207.866 197.034 216.888 188.013C225.91 178.991 230.985 166.759 231 154V76.9999C230.985 64.2411 225.91 52.0092 216.888 42.9873C207.866 33.9654 195.634 28.8902 182.875 28.8749V28.8749ZM48.125 48.1249H182.875C190.533 48.1249 197.878 51.1671 203.293 56.5822C208.708 61.9973 211.75 69.3418 211.75 76.9999H19.25C19.25 69.3418 22.2922 61.9973 27.7073 56.5822C33.1224 51.1671 40.4669 48.1249 48.125 48.1249V48.1249ZM182.875 182.875H48.125C40.4669 182.875 33.1224 179.833 27.7073 174.418C22.2922 169.003 19.25 161.658 19.25 154V96.2499H211.75V154C211.75 161.658 208.708 169.003 203.293 174.418C197.878 179.833 190.533 182.875 182.875 182.875Z" fill="#F2F2F2"/>
</g>
<defs>
<clipPath id="clip0_177_4287">
<rect width="231" height="231" fill="white"/>
</clipPath>
</defs>
</svg>
