<svg width="64" height="64" viewBox="0 0 64 64" fill="none" xmlns="http://www.w3.org/2000/svg">
<g clip-path="url(#clip0_1401_3020)">
<path d="M14.6667 45.3337C16.8759 45.3337 18.6667 43.5429 18.6667 41.3337C18.6667 39.1246 16.8759 37.3337 14.6667 37.3337C12.4576 37.3337 10.6667 39.1246 10.6667 41.3337C10.6667 43.5429 12.4576 45.3337 14.6667 45.3337Z" fill="#374957"/>
<path d="M50.6665 8H13.3332C9.79829 8.00423 6.40937 9.41035 3.9098 11.9099C1.41023 14.4095 0.00411222 17.7984 -0.00012207 21.3333L-0.00012207 42.6667C0.00411222 46.2016 1.41023 49.5905 3.9098 52.0901C6.40937 54.5897 9.79829 55.9958 13.3332 56H50.6665C54.2015 55.9958 57.5904 54.5897 60.09 52.0901C62.5895 49.5905 63.9956 46.2016 63.9999 42.6667V21.3333C63.9956 17.7984 62.5895 14.4095 60.09 11.9099C57.5904 9.41035 54.2015 8.00423 50.6665 8ZM13.3332 13.3333H50.6665C52.7883 13.3333 54.8231 14.1762 56.3234 15.6765C57.8237 17.1768 58.6665 19.2116 58.6665 21.3333H5.33321C5.33321 19.2116 6.17607 17.1768 7.67636 15.6765C9.17665 14.1762 11.2115 13.3333 13.3332 13.3333ZM50.6665 50.6667H13.3332C11.2115 50.6667 9.17665 49.8238 7.67636 48.3235C6.17607 46.8232 5.33321 44.7884 5.33321 42.6667V26.6667H58.6665V42.6667C58.6665 44.7884 57.8237 46.8232 56.3234 48.3235C54.8231 49.8238 52.7883 50.6667 50.6665 50.6667Z" fill="#374957"/>
</g>
<defs>
<clipPath id="clip0_1401_3020">
<rect width="64" height="64" fill="white"/>
</clipPath>
</defs>
</svg>
