<svg width="68" height="45" viewBox="0 0 68 45" fill="none" xmlns="http://www.w3.org/2000/svg">
<path d="M62.3333 0.887146H19.8333C17.8783 0.887146 16.3483 1.73126 15.3283 3.00949L0 22.5929L15.3283 42.1523C16.3483 43.4305 17.8783 44.2988 19.8333 44.2988H62.3333C65.45 44.2988 68 42.1282 68 39.4752V5.71066C68 3.05773 65.45 0.887146 62.3333 0.887146ZM53.8333 31.2512L49.8383 34.6517L39.6667 25.9935L29.495 34.6517L25.5 31.2512L35.6717 22.5929L25.5 13.9347L29.495 10.5342L39.6667 19.1924L49.8383 10.5342L53.8333 13.9347L43.6617 22.5929L53.8333 31.2512Z" fill="black"/>
</svg>
