<svg width="16" height="16" viewBox="0 0 16 16" fill="none" xmlns="http://www.w3.org/2000/svg">
<path d="M8 0C3.58222 0 0 3.58222 0 8C0 12.4178 3.57333 16 8 16C12.4178 16 16 12.4178 16 8C16 3.58222 12.4178 0 8 0ZM8 14.2222C4.56 14.2222 1.77778 11.44 1.77778 8C1.77778 4.56 4.56 1.77778 8 1.77778C11.44 1.77778 14.2222 4.56 14.2222 8C14.2222 11.44 11.44 14.2222 8 14.2222ZM8.88889 4.44444H7.11111V7.11111H4.44444V8.88889H7.11111V11.5556H8.88889V8.88889H11.5556V7.11111H8.88889V4.44444Z" fill="#898484"/>
</svg>
