<svg width="21" height="21" viewBox="0 0 21 21" fill="none" xmlns="http://www.w3.org/2000/svg">
<path d="M19.9204 11.7378C19.6961 13.4473 19.0106 15.0636 17.9373 16.4133C16.8641 17.763 15.4436 18.7951 13.8281 19.399C12.2127 20.003 10.4633 20.1559 8.76755 19.8413C7.0718 19.5268 5.49368 18.7568 4.20243 17.6138C2.91118 16.4708 1.95551 14.9979 1.43792 13.3532C0.920333 11.7084 0.860347 9.95388 1.2644 8.27766C1.66845 6.60143 2.52129 5.06678 3.73147 3.8383C4.94164 2.60981 6.46349 1.73383 8.1338 1.30431C12.7641 0.114697 17.5571 2.49986 19.3266 6.94013" stroke="#B1ADAD" stroke-opacity="0.93" stroke-width="2" stroke-linecap="round" stroke-linejoin="round"/>
<path d="M20.0003 1.00391V6.9401H14.0625" stroke="#B1ADAD" stroke-opacity="0.93" stroke-width="2" stroke-linecap="round" stroke-linejoin="round"/>
</svg>
