<svg width="55" height="55" viewBox="0 0 55 55" fill="none" xmlns="http://www.w3.org/2000/svg">
<g clip-path="url(#clip0_1401_3014)">
<path d="M36.6667 0H18.3334C15.2956 0.00363884 12.3832 1.21202 10.2351 3.36009C8.08708 5.50815 6.8787 8.42051 6.87506 11.4583V52.7083C6.87538 53.1252 6.98938 53.534 7.20479 53.8908C7.4202 54.2477 7.72885 54.539 8.09752 54.7335C8.4662 54.928 8.88093 55.0182 9.29708 54.9945C9.71323 54.9708 10.115 54.834 10.4592 54.599L15.2855 51.3013L20.1117 54.599C20.493 54.8601 20.9444 54.9998 21.4065 54.9998C21.8687 54.9998 22.32 54.8601 22.7013 54.599L27.5138 51.3013L32.3263 54.599C32.7079 54.8606 33.1596 55.0006 33.6222 55.0006C34.0849 55.0006 34.5366 54.8606 34.9182 54.599L39.7307 51.3035L44.5432 54.5967C44.8872 54.831 45.2886 54.9673 45.7042 54.9907C46.1198 55.0142 46.5339 54.924 46.9021 54.7299C47.2704 54.5358 47.5787 54.245 47.7942 53.8889C48.0097 53.5327 48.124 53.1246 48.1251 52.7083V11.4583C48.1214 8.42051 46.913 5.50815 44.765 3.36009C42.6169 1.21202 39.7046 0.00363884 36.6667 0V0ZM43.5417 48.3542L41.0209 46.6308C40.6391 46.3687 40.1869 46.2284 39.7238 46.2284C39.2607 46.2284 38.8085 46.3687 38.4267 46.6308L33.6142 49.9285L28.8017 46.6308C28.4202 46.3692 27.9684 46.2292 27.5058 46.2292C27.0432 46.2292 26.5914 46.3692 26.2099 46.6308L21.3974 49.9285L16.5849 46.6308C16.2038 46.3702 15.7529 46.2308 15.2912 46.2308C14.8295 46.2308 14.3786 46.3702 13.9976 46.6308L11.4584 48.3542V11.4583C11.4584 9.63497 12.1827 7.88629 13.472 6.59697C14.7613 5.30766 16.51 4.58333 18.3334 4.58333H36.6667C38.4901 4.58333 40.2388 5.30766 41.5281 6.59697C42.8174 7.88629 43.5417 9.63497 43.5417 11.4583V48.3542Z" fill="#374957"/>
<path d="M36.6664 18.3347H18.333C17.0674 18.3347 16.0414 19.3607 16.0414 20.6264C16.0414 21.892 17.0674 22.918 18.333 22.918H36.6664C37.932 22.918 38.958 21.892 38.958 20.6264C38.958 19.3607 37.932 18.3347 36.6664 18.3347Z" fill="#374957"/>
<path d="M32.083 27.5H18.333C17.0674 27.5 16.0414 28.526 16.0414 29.7917C16.0414 31.0573 17.0674 32.0834 18.333 32.0834H32.083C33.3487 32.0834 34.3747 31.0573 34.3747 29.7917C34.3747 28.526 33.3487 27.5 32.083 27.5Z" fill="#374957"/>
</g>
<defs>
<clipPath id="clip0_1401_3014">
<rect width="55" height="55" fill="white"/>
</clipPath>
</defs>
</svg>
